<?xml version="1.0" standalone="no"?>
<!DOCTYPE svg PUBLIC "-//W3C//DTD SVG 20010904//EN"
 "http://www.w3.org/TR/2001/REC-SVG-20010904/DTD/svg10.dtd">
<svg version="1.0" xmlns="http://www.w3.org/2000/svg"
 width="200.000000pt" height="200.000000pt" viewBox="0 0 200.000000 200.000000"
 preserveAspectRatio="xMidYMid meet">
<metadata>
Created by potrace 1.14, written by Peter Selinger 2001-2017
</metadata>
<g transform="translate(0.000000,200.000000) scale(0.100000,-0.100000)"
fill="#000000" stroke="none">
<path d="M720 1595 c-180 -180 -195 -187 -230 -108 -45 102 -102 135 -246 141
-135 6 -184 -19 -184 -92 0 -74 50 -106 164 -106 62 0 77 -3 84 -17 5 -10 30
-87 56 -170 33 -108 46 -170 46 -212 0 -54 2 -60 22 -63 32 -5 38 -43 37 -233
-2 -189 4 -213 61 -279 34 -38 83 -68 132 -80 l26 -6 -28 -28 c-54 -55 -48
-150 13 -196 39 -29 115 -29 154 0 61 46 67 141 13 196 l-28 28 235 0 236 0
-27 -26 c-108 -108 29 -286 155 -201 43 29 59 60 59 116 0 36 -6 49 -34 77
l-34 34 49 0 c40 0 55 5 81 29 27 24 33 36 33 70 0 62 -36 93 -115 99 l-60 4
43 47 c72 77 113 147 183 316 36 88 88 213 115 278 57 136 61 176 23 206 -23
18 -41 21 -138 21 l-111 0 -95 95 c-107 107 -133 117 -188 70 -26 -22 -37 -25
-73 -19 -34 6 -58 22 -128 85 -122 112 -111 114 -301 -76z"/>
</g>
</svg>
